<svg id="visual" viewBox="0 0 960 540" width="960" height="540" xmlns="http://www.w3.org/2000/svg" xmlns:xlink="http://www.w3.org/1999/xlink" version="1.1"><g stroke-width="1" stroke-linejoin="bevel"><path d="M428.7 260L331 323L418.7 335Z" fill="#020133" stroke="#020133"></path><path d="M428.7 260L281 261L331 323Z" fill="#030318" stroke="#030318"></path><path d="M428.7 260L355 155L281 261Z" fill="#04022c" stroke="#04022c"></path><path d="M430.7 184L355 155L428.7 260Z" fill="#04031b" stroke="#04031b"></path><path d="M230.3 140L238.3 278L281 261Z" fill="#04031b" stroke="#04031b"></path><path d="M281 261L238.3 278L331 323Z" fill="#030318" stroke="#030318"></path><path d="M316 482L405.7 454L331 323Z" fill="#04022c" stroke="#04022c"></path><path d="M331 323L405.7 454L418.7 335Z" fill="#04022c" stroke="#04022c"></path><path d="M568.3 273L522.3 187L428.7 260Z" fill="#020133" stroke="#020133"></path><path d="M448.7 123L342 120L355 155Z" fill="#04031b" stroke="#04031b"></path><path d="M355 155L230.3 140L281 261Z" fill="#04022c" stroke="#04022c"></path><path d="M568.3 273L428.7 260L418.7 335Z" fill="#040229" stroke="#040229"></path><path d="M428.7 260L522.3 187L430.7 184Z" fill="#040229" stroke="#040229"></path><path d="M430.7 184L448.7 123L355 155Z" fill="#04031f" stroke="#04031f"></path><path d="M522.3 187L448.7 123L430.7 184Z" fill="#020133" stroke="#020133"></path><path d="M405.7 454L534.3 399L418.7 335Z" fill="#03012f" stroke="#03012f"></path><path d="M534.3 399L568.3 273L418.7 335Z" fill="#04031b" stroke="#04031b"></path><path d="M128.7 305L185.3 341L238.3 278Z" fill="#030318" stroke="#030318"></path><path d="M238.3 278L185.3 341L331 323Z" fill="#010036" stroke="#010036"></path><path d="M185.3 341L316 482L331 323Z" fill="#010036" stroke="#010036"></path><path d="M342 120L230.3 140L355 155Z" fill="#03012f" stroke="#03012f"></path><path d="M534.3 540L566.3 417L534.3 399Z" fill="#04022c" stroke="#04022c"></path><path d="M534.3 399L611 354L568.3 273Z" fill="#040226" stroke="#040226"></path><path d="M445.7 540L534.3 399L405.7 454Z" fill="#040229" stroke="#040229"></path><path d="M566.3 417L611 354L534.3 399Z" fill="#020133" stroke="#020133"></path><path d="M309 0L228.3 106L342 120Z" fill="#040222" stroke="#040222"></path><path d="M342 120L228.3 106L230.3 140Z" fill="#040226" stroke="#040226"></path><path d="M111.7 204L128.7 305L238.3 278Z" fill="#040229" stroke="#040229"></path><path d="M111.7 204L238.3 278L230.3 140Z" fill="#040226" stroke="#040226"></path><path d="M196.3 540L335 540L316 482Z" fill="#040229" stroke="#040229"></path><path d="M209.3 483L316 482L185.3 341Z" fill="#040222" stroke="#040222"></path><path d="M316 482L335 540L405.7 454Z" fill="#03012f" stroke="#03012f"></path><path d="M114.7 428L209.3 483L185.3 341Z" fill="#04022c" stroke="#04022c"></path><path d="M335 540L445.7 540L405.7 454Z" fill="#030318" stroke="#030318"></path><path d="M568.3 273L612 158L522.3 187Z" fill="#04031b" stroke="#04031b"></path><path d="M522.3 187L572.3 96L448.7 123Z" fill="#04022c" stroke="#04022c"></path><path d="M672 279L612 158L568.3 273Z" fill="#040222" stroke="#040222"></path><path d="M612 158L572.3 96L522.3 187Z" fill="#010036" stroke="#010036"></path><path d="M448.7 123L436.7 0L342 120Z" fill="#04031f" stroke="#04031f"></path><path d="M534.3 540L612 451L566.3 417Z" fill="#04031b" stroke="#04031b"></path><path d="M566.3 417L612 451L611 354Z" fill="#020133" stroke="#020133"></path><path d="M611 354L672 279L568.3 273Z" fill="#04022c" stroke="#04022c"></path><path d="M228.3 106L111.7 204L230.3 140Z" fill="#030318" stroke="#030318"></path><path d="M728.7 374L672 279L611 354Z" fill="#000039" stroke="#000039"></path><path d="M445.7 540L534.3 540L534.3 399Z" fill="#030318" stroke="#030318"></path><path d="M0 308L91.7 361L128.7 305Z" fill="#000039" stroke="#000039"></path><path d="M128.7 305L91.7 361L185.3 341Z" fill="#020133" stroke="#020133"></path><path d="M572.3 96L436.7 0L448.7 123Z" fill="#03012f" stroke="#03012f"></path><path d="M91.7 361L114.7 428L185.3 341Z" fill="#03012f" stroke="#03012f"></path><path d="M436.7 0L309 0L342 120Z" fill="#040222" stroke="#040222"></path><path d="M228.3 106L79.7 76L111.7 204Z" fill="#020133" stroke="#020133"></path><path d="M209.3 483L196.3 540L316 482Z" fill="#04031b" stroke="#04031b"></path><path d="M106.7 540L196.3 540L209.3 483Z" fill="#000039" stroke="#000039"></path><path d="M612 158L615 72L572.3 96Z" fill="#040229" stroke="#040229"></path><path d="M572.3 96L565.3 0L436.7 0Z" fill="#03012f" stroke="#03012f"></path><path d="M716.7 61L615 72L612 158Z" fill="#040222" stroke="#040222"></path><path d="M309 0L225.3 0L228.3 106Z" fill="#04031b" stroke="#04031b"></path><path d="M728.7 374L710.7 259L672 279Z" fill="#04031b" stroke="#04031b"></path><path d="M672 279L710.7 259L612 158Z" fill="#020133" stroke="#020133"></path><path d="M615 72L565.3 0L572.3 96Z" fill="#040229" stroke="#040229"></path><path d="M612 451L728.7 374L611 354Z" fill="#040222" stroke="#040222"></path><path d="M757.7 451L728.7 374L612 451Z" fill="#030318" stroke="#030318"></path><path d="M114.7 428L106.7 540L209.3 483Z" fill="#040226" stroke="#040226"></path><path d="M0 471L106.7 540L114.7 428Z" fill="#03012f" stroke="#03012f"></path><path d="M132.7 0L79.7 76L228.3 106Z" fill="#010036" stroke="#010036"></path><path d="M111.7 204L0 308L128.7 305Z" fill="#03012f" stroke="#03012f"></path><path d="M0 159L0 308L111.7 204Z" fill="#000039" stroke="#000039"></path><path d="M91.7 361L0 471L114.7 428Z" fill="#030318" stroke="#030318"></path><path d="M0 308L0 332L91.7 361Z" fill="#040222" stroke="#040222"></path><path d="M225.3 0L132.7 0L228.3 106Z" fill="#030318" stroke="#030318"></path><path d="M534.3 540L673 540L612 451Z" fill="#030318" stroke="#030318"></path><path d="M716.7 61L638 0L615 72Z" fill="#04022c" stroke="#04022c"></path><path d="M615 72L638 0L565.3 0Z" fill="#040222" stroke="#040222"></path><path d="M849.3 240L769.7 214L710.7 259Z" fill="#010036" stroke="#010036"></path><path d="M710.7 259L769.7 214L612 158Z" fill="#000039" stroke="#000039"></path><path d="M0 88L0 159L79.7 76Z" fill="#040222" stroke="#040222"></path><path d="M79.7 76L0 159L111.7 204Z" fill="#030318" stroke="#030318"></path><path d="M769.7 214L716.7 61L612 158Z" fill="#040226" stroke="#040226"></path><path d="M673 540L757.7 451L612 451Z" fill="#010036" stroke="#010036"></path><path d="M728.7 374L849.3 240L710.7 259Z" fill="#04031f" stroke="#04031f"></path><path d="M673 540L706.7 540L757.7 451Z" fill="#04022c" stroke="#04022c"></path><path d="M0 332L0 471L91.7 361Z" fill="#040229" stroke="#040229"></path><path d="M0 0L0 88L79.7 76Z" fill="#04022c" stroke="#04022c"></path><path d="M891.3 0L715.7 0L716.7 61Z" fill="#04031b" stroke="#04031b"></path><path d="M716.7 61L715.7 0L638 0Z" fill="#000039" stroke="#000039"></path><path d="M0 471L0 540L106.7 540Z" fill="#020133" stroke="#020133"></path><path d="M838.3 540L821.3 454L757.7 451Z" fill="#040229" stroke="#040229"></path><path d="M757.7 451L821.3 454L728.7 374Z" fill="#04031b" stroke="#04031b"></path><path d="M891.3 330L849.3 240L728.7 374Z" fill="#010036" stroke="#010036"></path><path d="M769.7 214L837.3 170L716.7 61Z" fill="#040229" stroke="#040229"></path><path d="M849.3 240L837.3 170L769.7 214Z" fill="#03012f" stroke="#03012f"></path><path d="M132.7 0L0 0L79.7 76Z" fill="#04031b" stroke="#04031b"></path><path d="M821.3 454L891.3 330L728.7 374Z" fill="#040229" stroke="#040229"></path><path d="M960 170L867.3 126L837.3 170Z" fill="#04022c" stroke="#04022c"></path><path d="M837.3 170L867.3 126L716.7 61Z" fill="#04031b" stroke="#04031b"></path><path d="M960 170L837.3 170L849.3 240Z" fill="#03012f" stroke="#03012f"></path><path d="M706.7 540L838.3 540L757.7 451Z" fill="#040222" stroke="#040222"></path><path d="M960 378L960 302L891.3 330Z" fill="#020133" stroke="#020133"></path><path d="M960 378L891.3 330L960 428Z" fill="#04022c" stroke="#04022c"></path><path d="M891.3 330L960 302L849.3 240Z" fill="#040229" stroke="#040229"></path><path d="M960 428L891.3 330L821.3 454Z" fill="#010036" stroke="#010036"></path><path d="M960 116L891.3 0L867.3 126Z" fill="#03012f" stroke="#03012f"></path><path d="M867.3 126L891.3 0L716.7 61Z" fill="#03012f" stroke="#03012f"></path><path d="M960 302L960 170L849.3 240Z" fill="#040226" stroke="#040226"></path><path d="M838.3 540L960 428L821.3 454Z" fill="#04022c" stroke="#04022c"></path><path d="M960 170L960 116L867.3 126Z" fill="#000039" stroke="#000039"></path><path d="M838.3 540L960 540L960 428Z" fill="#030318" stroke="#030318"></path><path d="M960 116L960 0L891.3 0Z" fill="#040226" stroke="#040226"></path></g></svg>