<?xml version="1.0" encoding="UTF-8" standalone="no"?>
<svg
   xmlns:dc="http://purl.org/dc/elements/1.1/"
   xmlns:cc="http://creativecommons.org/ns#"
   xmlns:rdf="http://www.w3.org/1999/02/22-rdf-syntax-ns#"
   xmlns:svg="http://www.w3.org/2000/svg"
   xmlns="http://www.w3.org/2000/svg"
   xmlns:sodipodi="http://sodipodi.sourceforge.net/DTD/sodipodi-0.dtd"
   xmlns:inkscape="http://www.inkscape.org/namespaces/inkscape"
   width="200"
   height="200"
   viewBox="0 0 15.42048 15.42048"
   version="1.1"
   id="svg10"
   sodipodi:docname="alfa-bank.svg"
   inkscape:version="0.92.5 (2060ec1f9f, 2020-04-08)">
  <metadata
     id="metadata16">
    <rdf:RDF>
      <cc:Work
         rdf:about="">
        <dc:format>image/svg+xml</dc:format>
        <dc:type
           rdf:resource="http://purl.org/dc/dcmitype/StillImage" />
        <dc:title></dc:title>
      </cc:Work>
    </rdf:RDF>
  </metadata>
  <defs
     id="defs14" />
  <sodipodi:namedview
     pagecolor="#ffffff"
     bordercolor="#666666"
     borderopacity="1"
     objecttolerance="10"
     gridtolerance="10"
     guidetolerance="10"
     inkscape:pageopacity="0"
     inkscape:pageshadow="2"
     inkscape:window-width="1366"
     inkscape:window-height="713"
     id="namedview12"
     showgrid="false"
     inkscape:zoom="0.26700352"
     inkscape:cx="242.4359"
     inkscape:cy="663.73462"
     inkscape:window-x="0"
     inkscape:window-y="27"
     inkscape:window-maximized="1"
     inkscape:current-layer="g8" />
  <g
     id="g8"
     style="clip-rule:evenodd;fill-rule:evenodd"
     transform="translate(0,-177.33552)">
    <path
       d="M -2.0213846,4.9090768 H 189.91786 V 123.33967 H -2.0213846 Z"
       id="path2"
       inkscape:connector-curvature="0"
       style="fill:#ffffff;stroke-width:0.78217858" />
    <path
       d="m 14.125922,185.42236 v 0.10328 l -4.5525933,0.086 0.2466936,-0.27522 z m -6.0432462,-0.1204 -0.3037635,0.34408 -6.4156802,0.12611 v -0.60772 z M 7.423416,186.04737 7.0966396,186.42 1.4492067,186.52898 a 6.8648826,6.8648826 0 0 1 -0.07456,-0.602 z m -0.6537367,0.74542 -0.3554964,0.40134 -4.7814291,0.0917 a 9.1221255,9.1221255 0 0 1 -0.1548278,-0.602 z m 1.4391049,0.36692 0.2923498,-0.33267 5.441057,0.10899 c -0.0057,0.0402 -0.01731,0.0746 -0.02301,0.10898 z m -2.104072,0.37832 -0.3726172,0.42417 -3.8069914,0.0746 a 6.52301,6.52301 0 0 1 -0.2349112,-0.58488 z m 1.4219841,0.38992 0.3153619,-0.35549 5.8593308,0.1204 a 0.65631436,0.65631436 0 0 1 -0.04566,0.11469 z m -0.6822727,0.77396 0.3381907,-0.38422 6.1691707,0.12629 c -0.02872,0.0459 -0.05173,0.086 -0.08027,0.132 z m -1.3989712,-0.41846 -0.3956301,0.45288 -2.7117837,0.0517 a 5.089612,5.089612 0 0 1 -0.3267763,-0.57348 z m 0.7166985,1.19241 0.3612036,-0.41275 6.3355955,0.12611 c -0.04032,0.0516 -0.08064,0.10328 -0.120401,0.15482 z m -3.2567184,0.0632 C 2.7506048,189.3614 2.6016691,189.17804 2.4696694,188.98289 l 2.3163384,0.046 -0.4241647,0.48161 z m 2.5744464,0.70528 0.3840309,-0.43576 6.3297052,0.1263 c -0.06904,0.063 -0.131999,0.1261 -0.200668,0.18354 z m -1.8003085,0.0344 A 5.5366054,5.5366054 0 0 1 3.1062852,189.7513 l 1.0204627,0.0229 z m 1.123743,0.72811 0.4013366,-0.45288 6.048769,0.1204 c -0.120401,0.0803 -0.246692,0.15464 -0.372433,0.2235 l -6.0603669,0.1204 z m 2.9240508,0.72241 c -0.7796611,0 -1.5250796,-0.1377 -2.2647909,-0.41293 l 4.2716584,0.0919 c -0.5907747,0.21779 -1.3190724,0.32107 -2.0068675,0.32107 z m 2.5282368,-6.88587 0.223497,-0.25222 3.595092,0.0744 0.01141,0.10328 z m -1.5134806,-0.28664 -0.2807521,0.32107 -7.092245,0.1377 a 7.0583711,7.0583711 0 0 1 0.07456,-0.60771 z m 2.2016436,-0.48732 0.194961,-0.22349 2.792052,0.0574 c 0.0057,0.0344 0.01731,0.0689 0.02301,0.10899 z m -1.5421999,-0.2581 -0.2581071,0.29235 -7.6710541,0.14912 c 0.039947,-0.20067 0.091682,-0.40134 0.1491205,-0.59611 z m 0.6590759,-0.74523 -0.2347264,0.26933 -8.1530261,0.15483 c 0.068852,-0.20067 0.1491205,-0.39563 0.2350945,-0.59059 z m 1.565213,0.22938 0.172316,-0.19514 1.874869,0.0403 c 0.01731,0.0345 0.03424,0.0744 0.04566,0.1147 z m 1.674199,-0.92307 c 0.02301,0.0459 0.04602,0.086 0.07475,0.13181 l -1.066488,0.023 0.148936,-0.17213 z m -2.579969,-0.0517 -0.212082,0.24079 -8.5140444,0.16625 c 0.097388,-0.20067 0.2063752,-0.38993 0.3210692,-0.57918 z m 0.659445,-0.74524 -0.18907,0.21208 -8.7493238,0.17214 a 6.7903223,6.7903223 0 0 1 0.435763,-0.55617 z m 0.659076,-0.74541 -0.160351,0.18925 -8.8063943,0.17195 a 6.2442835,6.2442835 0 0 1 0.5675787,-0.53316 z m -1.083426,-0.77967 c 0.126293,0.0686 0.240987,0.14323 0.361019,0.21797 l -7.3558745,0.14323 a 6.9626394,6.9626394 0 0 1 0.7912588,-0.48712 z m -2.5797836,-0.79697 c 0.6421382,0.063 0.9460864,0.1147 1.4332135,0.29806 l -4.4662511,0.1204 a 6.1888696,6.1888696 0 0 1 1.9148178,-0.44147 l 0.5445658,-0.0114 z"
       id="path4"
       style="fill:#c83737;stroke-width:0.18409939"
       inkscape:connector-curvature="0" />
  </g>
</svg>
