<svg id="visual" viewBox="0 0 900 600" width="900" height="600" xmlns="http://www.w3.org/2000/svg" xmlns:xlink="http://www.w3.org/1999/xlink" version="1.1"><rect x="0" y="0" width="900" height="600" fill="#030318"></rect><path d="M0 375L21.5 372.5C43 370 86 365 128.8 373.5C171.7 382 214.3 404 257.2 415.8C300 427.7 343 429.3 385.8 425.3C428.7 421.3 471.3 411.7 514.2 408C557 404.3 600 406.7 642.8 409.3C685.7 412 728.3 415 771.2 405.8C814 396.7 857 375.3 878.5 364.7L900 354L900 601L878.5 601C857 601 814 601 771.2 601C728.3 601 685.7 601 642.8 601C600 601 557 601 514.2 601C471.3 601 428.7 601 385.8 601C343 601 300 601 257.2 601C214.3 601 171.7 601 128.8 601C86 601 43 601 21.5 601L0 601Z" fill="#090621"></path><path d="M0 412L21.5 409.3C43 406.7 86 401.3 128.8 399C171.7 396.7 214.3 397.3 257.2 402.5C300 407.7 343 417.3 385.8 420.8C428.7 424.3 471.3 421.7 514.2 418.3C557 415 600 411 642.8 410C685.7 409 728.3 411 771.2 408.8C814 406.7 857 400.3 878.5 397.2L900 394L900 601L878.5 601C857 601 814 601 771.2 601C728.3 601 685.7 601 642.8 601C600 601 557 601 514.2 601C471.3 601 428.7 601 385.8 601C343 601 300 601 257.2 601C214.3 601 171.7 601 128.8 601C86 601 43 601 21.5 601L0 601Z" fill="#2f173b"></path><path d="M0 453L21.5 455.5C43 458 86 463 128.8 464.7C171.7 466.3 214.3 464.7 257.2 460.8C300 457 343 451 385.8 452.3C428.7 453.7 471.3 462.3 514.2 463.8C557 465.3 600 459.7 642.8 455C685.7 450.3 728.3 446.7 771.2 452.5C814 458.3 857 473.7 878.5 481.3L900 489L900 601L878.5 601C857 601 814 601 771.2 601C728.3 601 685.7 601 642.8 601C600 601 557 601 514.2 601C471.3 601 428.7 601 385.8 601C343 601 300 601 257.2 601C214.3 601 171.7 601 128.8 601C86 601 43 601 21.5 601L0 601Z" fill="#5d1e4b"></path><path d="M0 494L21.5 493.8C43 493.7 86 493.3 128.8 494.2C171.7 495 214.3 497 257.2 498C300 499 343 499 385.8 504C428.7 509 471.3 519 514.2 520.2C557 521.3 600 513.7 642.8 514.7C685.7 515.7 728.3 525.3 771.2 523.7C814 522 857 509 878.5 502.5L900 496L900 601L878.5 601C857 601 814 601 771.2 601C728.3 601 685.7 601 642.8 601C600 601 557 601 514.2 601C471.3 601 428.7 601 385.8 601C343 601 300 601 257.2 601C214.3 601 171.7 601 128.8 601C86 601 43 601 21.5 601L0 601Z" fill="#8d264d"></path><path d="M0 548L21.5 547.3C43 546.7 86 545.3 128.8 549C171.7 552.7 214.3 561.3 257.2 559.7C300 558 343 546 385.8 545.7C428.7 545.3 471.3 556.7 514.2 559.7C557 562.7 600 557.3 642.8 552.3C685.7 547.3 728.3 542.7 771.2 542.3C814 542 857 546 878.5 548L900 550L900 601L878.5 601C857 601 814 601 771.2 601C728.3 601 685.7 601 642.8 601C600 601 557 601 514.2 601C471.3 601 428.7 601 385.8 601C343 601 300 601 257.2 601C214.3 601 171.7 601 128.8 601C86 601 43 601 21.5 601L0 601Z" fill="#b63943"></path></svg>